<svg width="960" height="540" viewBox="0 0 960 540" xmlns="http://www.w3.org/2000/svg" role="img" aria-label="Musashi-inspired visual">
  <defs>
    <linearGradient id="bg2" x1="0" y1="0" x2="1" y2="1">
      <stop offset="0%" stop-color="#f5f0e6"/>
      <stop offset="100%" stop-color="#e4dbc9"/>
    </linearGradient>
    <linearGradient id="ink" x1="0" y1="0" x2="1" y2="1">
      <stop offset="0%" stop-color="#5a6a7a"/>
      <stop offset="100%" stop-color="#4a3f30"/>
    </linearGradient>
    <filter id="grain2" x="-20%" y="-20%" width="140%" height="140%">
      <feTurbulence type="fractalNoise" baseFrequency="0.85" numOctaves="2" stitchTiles="stitch"/>
      <feColorMatrix type="saturate" values="0"/>
      <feComponentTransfer>
        <feFuncA type="table" tableValues="0 0.05"/>
      </feComponentTransfer>
    </filter>
  </defs>

  <rect width="960" height="540" fill="url(#bg2)"/>
  <rect width="960" height="540" filter="url(#grain2)"/>

  <g transform="translate(480 270)">
    <circle r="165" fill="none" stroke="#d4cbb8" stroke-width="2"/>

    <path d="M-190 110 C-110 -55 100 -55 190 110" fill="none" stroke="#c5b89f" stroke-width="2" stroke-dasharray="7 8"/>

    <path d="M-115 -76 C-73 -143 72 -144 115 -78 C146 -28 142 44 96 89 C58 127 -58 128 -96 90 C-142 45 -146 -28 -115 -76 Z" fill="none" stroke="url(#ink)" stroke-width="8"/>

    <path d="M-170 -12 C-94 -36 -24 -39 44 -20 C89 -8 132 -8 172 -20" fill="none" stroke="#8b2a2a" stroke-width="6" stroke-linecap="round" opacity="0.75"/>
    <path d="M-145 24 C-68 1 4 -2 72 16 C102 23 130 22 155 13" fill="none" stroke="#5a6a7a" stroke-width="5" stroke-linecap="round" opacity="0.78"/>

    <text x="0" y="-188" text-anchor="middle" font-family="Cinzel, serif" font-size="28" letter-spacing="8" fill="#5a6a7a">MUSASHI ARC</text>
    <text x="0" y="195" text-anchor="middle" font-family="'IM Fell English', serif" font-size="24" fill="#6f624f">Mastery through discipline</text>
  </g>
</svg>
